<svg width="3557" height="597" viewBox="0 0 3557 597" fill="none" xmlns="http://www.w3.org/2000/svg">
<path d="M2182.88 133.54C2228.07 133.135 2273.25 132.73 2319.8 132.312C2334 132.134 2348.19 131.955 2362.82 131.771C2380.34 131.682 2380.34 131.682 2388.57 131.665C2394.25 131.635 2399.92 131.567 2405.6 131.466C2443.83 130.823 2476.71 132.418 2507.17 158.568C2532.92 186.288 2534.18 217.086 2533.47 253.041C2531.53 276.361 2523.04 293.519 2512.67 314.211C2514.28 316.251 2515.89 318.291 2517.55 320.394C2519.66 323.133 2521.78 325.872 2523.96 328.694C2526.05 331.382 2528.15 334.071 2530.31 336.841C2548.46 363.793 2546.58 392.969 2544.08 424.184C2538.61 450.383 2526.94 467.549 2507.12 485.17C2471.55 505.433 2433.49 504.317 2393.75 503.888C2388.34 503.87 2382.92 503.858 2377.5 503.852C2357.62 503.79 2337.73 503.626 2317.84 503.473C2273.3 503.23 2228.77 502.987 2182.88 502.737C2182.88 380.902 2182.88 259.067 2182.88 133.54ZM2241.77 192.454C2241.66 207.428 2241.59 222.402 2241.53 237.376C2241.5 241.652 2241.46 245.928 2241.43 250.333C2241.42 254.396 2241.4 258.459 2241.39 262.645C2241.37 266.409 2241.35 270.173 2241.33 274.051C2240.79 282.683 2240.79 282.683 2245.7 286.717C2251.74 287.145 2257.8 287.303 2263.85 287.35C2267.72 287.388 2271.59 287.426 2275.57 287.465C2281.89 287.49 2281.89 287.49 2288.33 287.515C2292.64 287.537 2296.94 287.56 2301.38 287.583C2310.52 287.62 2319.65 287.646 2328.79 287.661C2342.76 287.699 2356.72 287.821 2370.69 287.945C2379.55 287.97 2388.42 287.991 2397.28 288.006C2403.55 288.079 2403.55 288.079 2409.95 288.153C2437.82 288.367 2437.82 288.367 2461.63 274.934C2474.14 260.262 2475.23 247.003 2474.55 228.401C2472.96 216.582 2469.32 209.373 2461.63 200.309C2449.29 192.589 2439.83 191.492 2425.4 191.562C2421.32 191.563 2417.23 191.564 2413.02 191.564C2408.64 191.605 2404.25 191.645 2399.74 191.687C2395.23 191.698 2390.72 191.709 2386.07 191.721C2371.67 191.765 2357.27 191.863 2342.87 191.963C2333.11 192.003 2323.34 192.038 2313.58 192.071C2289.64 192.157 2265.71 192.289 2241.77 192.454ZM2241.77 345.632C2241.66 361.26 2241.59 376.889 2241.53 392.518C2241.5 396.981 2241.46 401.444 2241.43 406.042C2241.42 410.282 2241.4 414.523 2241.39 418.891C2241.37 422.82 2241.35 426.748 2241.33 430.796C2240.75 439.746 2240.75 439.746 2245.7 443.823C2251.96 444.251 2258.24 444.408 2264.51 444.455C2270.53 444.512 2270.53 444.512 2276.67 444.57C2281.04 444.586 2285.41 444.603 2289.91 444.62C2294.38 444.643 2298.85 444.665 2303.46 444.688C2312.95 444.725 2322.44 444.751 2331.93 444.766C2346.42 444.804 2360.91 444.926 2375.41 445.05C2384.61 445.076 2393.82 445.096 2403.03 445.111C2409.53 445.184 2409.53 445.184 2416.16 445.258C2438.03 445.195 2454.81 444.992 2473.41 432.04C2485.07 414.939 2487.05 401.431 2485.19 380.98C2481.19 367.435 2476.65 358.432 2465.56 349.559C2453.57 345.562 2445.52 345.157 2432.98 345.186C2428.74 345.186 2424.49 345.186 2420.12 345.187C2413.26 345.217 2413.26 345.217 2406.25 345.248C2401.56 345.254 2396.88 345.259 2392.04 345.265C2377.04 345.287 2362.04 345.336 2347.04 345.386C2336.88 345.406 2326.72 345.424 2316.56 345.44C2291.63 345.483 2266.7 345.549 2241.77 345.632Z" fill="white"/>
<path d="M1159.23 132.082C1166.23 132.029 1166.23 132.029 1173.37 131.975C1183.23 131.918 1193.09 131.883 1202.95 131.869C1217.95 131.822 1232.95 131.629 1247.95 131.43C1257.55 131.393 1267.16 131.365 1276.76 131.346C1283.43 131.231 1283.43 131.231 1290.24 131.114C1323.29 131.299 1349.91 138.087 1374.68 160.942C1405.68 193.745 1410.05 229.232 1410.11 272.802C1410.13 278.119 1410.13 278.119 1410.15 283.542C1410.17 291.019 1410.18 298.496 1410.18 305.973C1410.19 317.324 1410.26 328.674 1410.33 340.024C1410.34 347.32 1410.35 354.615 1410.36 361.91C1410.38 365.262 1410.41 368.614 1410.44 372.068C1410.3 410.259 1403.84 442.104 1378.04 471.316C1345.21 499.267 1313.78 503.964 1271.98 504.057C1267.85 504.083 1263.72 504.109 1259.47 504.136C1250.76 504.176 1242.04 504.194 1233.33 504.193C1220.12 504.21 1206.9 504.353 1193.69 504.502C1185.19 504.525 1176.68 504.54 1168.18 504.548C1164.28 504.604 1160.39 504.661 1156.37 504.719C1120.23 504.486 1084.92 495.917 1058.07 470.411C1030.61 438.008 1028.01 405.6 1027.97 364.687C1027.95 360.872 1027.94 357.057 1027.93 353.126C1027.91 345.078 1027.9 337.03 1027.9 328.982C1027.89 316.734 1027.82 304.488 1027.74 292.241C1027.73 284.396 1027.72 276.551 1027.72 268.706C1027.69 265.076 1027.66 261.446 1027.63 257.706C1027.77 219.852 1035.41 190.567 1060.03 161.033C1089.39 133.841 1120.73 132.263 1159.23 132.082ZM1095.97 212.147C1089.07 230.011 1089.6 247.207 1089.6 266.205C1089.57 270.306 1089.54 274.407 1089.51 278.632C1089.47 287.291 1089.46 295.95 1089.47 304.61C1089.48 317.835 1089.31 331.051 1089.14 344.274C1089.12 352.7 1089.11 361.125 1089.11 369.551C1089.05 373.491 1088.98 377.432 1088.92 381.492C1089.09 398.905 1089.28 412.236 1100.18 426.372C1122.08 445.662 1141.42 445.032 1169.44 445.004C1175.05 445.029 1175.05 445.029 1180.78 445.055C1188.68 445.078 1196.58 445.08 1204.48 445.063C1216.52 445.05 1228.55 445.142 1240.59 445.242C1248.28 445.251 1255.97 445.254 1263.67 445.25C1267.24 445.286 1270.82 445.322 1274.5 445.359C1296.32 445.202 1311.62 442.413 1330.93 432.04C1343.7 418.414 1347.1 405.715 1347.33 387.358C1347.38 383.897 1347.43 380.435 1347.48 376.869C1347.51 373.137 1347.54 369.406 1347.57 365.562C1347.62 359.786 1347.62 359.786 1347.67 353.894C1347.72 345.742 1347.76 337.591 1347.79 329.439C1347.86 317 1348.03 304.564 1348.21 292.126C1348.25 284.201 1348.28 276.277 1348.31 268.353C1348.41 262.792 1348.41 262.792 1348.51 257.118C1348.44 234.955 1346.37 221.41 1330.93 204.237C1313.08 188.431 1292.44 190.75 1269.85 190.89C1265.83 190.878 1261.82 190.867 1257.69 190.855C1249.22 190.847 1240.75 190.869 1232.28 190.918C1219.34 190.981 1206.41 190.919 1193.48 190.843C1185.24 190.851 1176.99 190.866 1168.75 190.89C1164.9 190.866 1161.04 190.842 1157.07 190.817C1132.24 191.071 1113.65 192.854 1095.97 212.147Z" fill="white"/>
<path d="M2784.61 132.082C2791.61 132.029 2791.61 132.029 2798.75 131.975C2808.61 131.918 2818.47 131.883 2828.33 131.869C2843.33 131.822 2858.33 131.629 2873.33 131.43C2882.94 131.393 2892.54 131.365 2902.15 131.346C2908.82 131.231 2908.82 131.231 2915.62 131.114C2950.01 131.307 2975.79 139.549 3002.08 162.138C3004.47 165.014 3006.85 167.89 3009.32 170.852C3011.79 173.728 3014.26 176.604 3016.8 179.567C3035.99 207.039 3035.48 238.194 3035.63 270.455C3035.66 274.164 3035.68 277.873 3035.7 281.695C3035.74 289.525 3035.76 297.356 3035.78 305.186C3035.82 317.063 3035.94 328.938 3036.06 340.815C3036.09 348.455 3036.11 356.096 3036.12 363.736C3036.17 367.239 3036.22 370.743 3036.27 374.353C3036.14 412.859 3027.11 447.312 2999.5 475.244C2968.01 500.409 2936.47 503.97 2897.36 504.057C2893.23 504.083 2889.1 504.109 2884.85 504.136C2876.14 504.176 2867.43 504.194 2858.72 504.193C2845.5 504.21 2832.29 504.353 2819.07 504.502C2810.57 504.525 2802.07 504.54 2793.57 504.548C2789.67 504.604 2785.77 504.661 2781.75 504.719C2745.87 504.488 2710.18 495.996 2683.45 470.672C2656.75 437.974 2653.4 403.069 2653.35 362.478C2653.34 358.837 2653.32 355.196 2653.31 351.445C2653.29 343.767 2653.28 336.089 2653.28 328.41C2653.27 316.732 2653.2 305.055 2653.13 293.376C2653.12 285.889 2653.11 278.402 2653.1 270.915C2653.08 267.457 2653.05 263.999 2653.02 260.436C2653.15 224.139 2659.8 191.398 2685.62 164.393C2717.14 134.977 2742.55 132.28 2784.61 132.082ZM2721.35 216.428C2714.51 233.631 2715.07 250.059 2715.12 268.414C2715.1 272.341 2715.08 276.267 2715.06 280.313C2715.04 288.602 2715.04 296.892 2715.07 305.181C2715.11 317.836 2714.99 330.484 2714.87 343.139C2714.86 351.206 2714.87 359.274 2714.88 367.341C2714.83 371.11 2714.79 374.879 2714.74 378.762C2714.97 400.937 2716.82 415.052 2732.53 432.04C2752.49 446.1 2771.7 445.545 2795.21 445.388C2798.94 445.399 2802.68 445.41 2806.53 445.422C2814.41 445.43 2822.28 445.408 2830.16 445.359C2842.16 445.296 2854.16 445.358 2866.16 445.434C2873.84 445.426 2881.51 445.411 2889.19 445.388C2892.75 445.412 2896.31 445.435 2899.98 445.46C2921.7 445.221 2937.46 443.23 2956.31 432.04C2975.27 412.188 2974.26 392.43 2973.97 366.482C2973.97 360.456 2973.97 360.456 2973.98 354.308C2973.98 345.841 2973.93 337.373 2973.85 328.906C2973.74 315.959 2973.77 303.018 2973.82 290.07C2973.8 281.828 2973.76 273.587 2973.72 265.346C2973.73 261.483 2973.74 257.621 2973.76 253.641C2973.66 226.77 2973.66 226.77 2960.24 204.237C2939.7 189.685 2919.06 190.679 2894.85 190.751C2890.84 190.731 2886.83 190.71 2882.71 190.689C2874.26 190.664 2865.81 190.669 2857.36 190.703C2844.46 190.736 2831.57 190.623 2818.67 190.498C2810.45 190.492 2802.22 190.494 2794 190.506C2790.16 190.462 2786.32 190.418 2782.36 190.372C2755.36 190.647 2739.77 195.447 2721.35 216.428Z" fill="white"/>
<path d="M255.613 132.647C258.297 132.646 260.981 132.645 263.746 132.644C272.541 132.649 281.334 132.71 290.129 132.772C296.257 132.787 302.385 132.798 308.513 132.806C324.584 132.835 340.655 132.913 356.726 133C373.148 133.08 389.571 133.116 405.993 133.155C438.174 133.24 470.354 133.378 502.534 133.539C502.534 152.981 502.534 172.423 502.534 192.454C494.669 192.49 486.803 192.527 478.699 192.565C452.686 192.697 426.673 192.916 400.661 193.176C384.892 193.331 369.124 193.457 353.355 193.518C338.131 193.577 322.91 193.713 307.687 193.9C301.884 193.958 296.082 193.989 290.279 193.993C282.138 194.002 274.004 194.108 265.864 194.237C258.92 194.289 258.92 194.289 251.836 194.343C237.033 196.787 230.493 201.71 219.859 212.092C208.095 235.628 213.466 264.37 212.007 290.644C298.812 290.644 385.616 290.644 475.052 290.644C475.052 311.382 475.052 332.12 475.052 353.486C389.543 353.486 304.033 353.486 215.933 353.486C214.637 402.739 213.341 451.991 212.007 502.736C192.573 502.736 173.139 502.736 153.116 502.736C152.671 464.495 152.311 426.256 152.099 388.013C151.997 370.252 151.858 352.492 151.635 334.732C151.42 317.568 151.304 300.405 151.253 283.239C151.217 276.716 151.147 270.193 151.04 263.67C149.96 194.767 149.96 194.767 172.746 164.96C197.456 141.417 221.301 132.523 255.613 132.647Z" fill="white"/>
<path d="M1503.68 133.54C1524.41 133.54 1545.14 133.54 1566.49 133.54C1567.66 142.122 1568.83 150.705 1570.04 159.548C1573.9 187.923 1577.77 216.298 1581.65 244.672C1584 261.873 1586.34 279.074 1588.68 296.276C1590.94 312.881 1593.21 329.485 1595.48 346.089C1596.35 352.419 1597.21 358.75 1598.07 365.081C1599.27 373.958 1600.49 382.833 1601.7 391.707C1602.39 396.757 1603.08 401.807 1603.79 407.01C1605.43 418.073 1607.35 428.96 1609.68 439.895C1621.34 439.895 1633 439.895 1645.01 439.895C1667.32 401.242 1688.45 361.999 1709.31 322.552C1720.66 301.1 1732.05 279.672 1743.44 258.242C1746.72 252.07 1749.98 245.893 1753.25 239.714C1758.02 230.723 1762.84 221.769 1767.7 212.829C1770.15 208.267 1772.6 203.705 1775.13 199.005C1790.03 177.617 1810.59 173.689 1834.69 168.152C1837.6 167.456 1840.51 166.759 1843.5 166.042C1850.62 164.343 1857.75 162.684 1864.87 161.033C1858.83 177.257 1851.06 192.262 1842.79 207.428C1832.02 227.38 1821.62 247.46 1811.63 267.815C1789.62 312.382 1765.82 356.029 1742.16 399.731C1736.22 410.718 1730.35 421.733 1724.49 432.761C1721.47 438.332 1718.46 443.902 1715.44 449.468C1714.18 451.876 1712.92 454.283 1711.62 456.764C1700.55 476.848 1687.05 489.332 1666.7 499.96C1643 506.604 1613.23 507.061 1590.05 498.073C1570.49 486.25 1556.97 472.132 1546.86 451.678C1543.61 438.481 1541.85 425.12 1539.99 411.665C1539.38 407.449 1538.77 403.233 1538.13 398.89C1536.67 388.756 1535.23 378.621 1533.81 368.48C1531.23 349.988 1528.58 331.505 1525.93 313.021C1522.75 290.755 1519.59 268.484 1516.44 246.213C1515.49 239.562 1515.49 239.562 1514.53 232.777C1512.71 220.008 1510.92 207.236 1509.14 194.464C1508.59 190.593 1508.03 186.723 1507.47 182.735C1506.97 179.131 1506.47 175.527 1505.95 171.814C1505.29 167.108 1505.29 167.108 1504.61 162.308C1503.63 152.763 1503.68 143.134 1503.68 133.54Z" fill="white"/>
<path d="M3129.06 133.54C3239.19 133.54 3349.31 133.54 3462.77 133.54C3462.77 152.981 3462.77 172.423 3462.77 192.454C3418.72 192.454 3374.67 192.454 3329.29 192.454C3329.31 201.714 3329.33 210.974 3329.35 220.514C3329.42 251.037 3329.46 281.559 3329.49 312.082C3329.51 330.596 3329.54 349.11 3329.59 367.624C3329.63 385.476 3329.65 403.327 3329.66 421.179C3329.67 428.006 3329.68 434.832 3329.7 441.658C3329.73 451.186 3329.74 460.713 3329.73 470.241C3329.75 473.091 3329.76 475.942 3329.78 478.879C3329.74 498.361 3329.74 498.361 3325.36 502.737C3305.93 502.737 3286.5 502.737 3266.47 502.737C3266.47 400.344 3266.47 297.95 3266.47 192.454C3221.13 192.454 3175.78 192.454 3129.06 192.454C3129.06 173.012 3129.06 153.57 3129.06 133.54Z" fill="white"/>
<path d="M616.39 133.54C637.119 133.54 657.849 133.54 679.206 133.54C679.264 142.282 679.321 151.025 679.38 160.033C679.577 188.894 679.839 217.755 680.132 246.615C680.308 264.116 680.462 281.617 680.567 299.119C680.669 316.003 680.827 332.887 681.025 349.771C681.091 356.218 681.136 362.665 681.16 369.112C681.198 378.132 681.308 387.148 681.435 396.166C681.479 401.303 681.522 406.441 681.567 411.733C682.076 424.032 682.076 424.032 688.637 431.581C701.254 440.402 709.986 440.477 725.278 440.701C729.994 440.78 734.709 440.858 739.568 440.939C744.68 441.004 749.792 441.07 755.059 441.138C760.329 441.218 765.599 441.301 770.869 441.385C784.746 441.602 798.623 441.796 812.5 441.985C826.658 442.182 840.816 442.401 854.974 442.618C882.757 443.041 910.541 443.437 938.326 443.822C938.326 463.264 938.326 482.706 938.326 502.737C907.198 503.004 876.072 503.22 844.944 503.347C830.487 503.409 816.031 503.492 801.574 503.626C787.599 503.755 773.624 503.824 759.648 503.855C751.774 503.887 743.9 503.979 736.026 504.072C703.428 504.078 676.323 501.751 648.534 483.835C625.855 461.147 617.469 437.023 615.445 405.593C615.463 400.57 615.48 395.546 615.498 390.37C615.497 387.569 615.496 384.768 615.495 381.882C615.5 372.744 615.561 363.607 615.623 354.469C615.638 348.085 615.649 341.702 615.657 335.319C615.686 318.608 615.763 301.898 615.851 285.188C615.931 268.1 615.967 251.012 616.006 233.924C616.09 200.462 616.228 167.001 616.39 133.54Z" fill="white"/>
<path d="M2006.21 133.54C2028.24 133.54 2050.26 133.54 2072.95 133.54C2065.12 160.389 2056.49 186.743 2046.94 213.028C2045.6 216.766 2044.25 220.503 2042.86 224.354C2031.02 257.116 2019.09 289.843 2007.13 322.561C1999.46 343.556 1991.86 364.571 1984.39 385.638C1981.51 393.735 1978.59 401.818 1975.66 409.896C1972.26 419.279 1968.91 428.683 1965.63 438.112C1954.6 468.021 1941.92 484.083 1914.68 500.282C1888.94 506.272 1863.91 506.114 1840.6 492.734C1818.26 474.857 1802.5 444.502 1798.13 416.329C1799.59 396.731 1806.5 382.775 1816.04 365.761C1818.56 361.234 1821.07 356.708 1823.67 352.045C1826.57 346.926 1826.57 346.926 1829.54 341.704C1832.13 341.704 1834.72 341.704 1837.39 341.704C1838.3 344.12 1839.21 346.537 1840.15 349.026C1844.29 360.008 1848.45 370.985 1852.6 381.962C1854.04 385.765 1855.47 389.567 1856.94 393.484C1858.34 397.155 1859.73 400.826 1861.16 404.607C1862.44 407.981 1863.71 411.354 1865.02 414.829C1868.5 423.447 1872.37 431.654 1876.65 439.895C1886.25 439.345 1886.25 439.345 1896.28 435.967C1901.61 428.136 1901.61 428.136 1904.54 417.91C1905.87 414.051 1907.19 410.191 1908.56 406.215C1910.61 399.868 1910.61 399.868 1912.71 393.392C1915.78 384.365 1918.87 375.339 1921.95 366.315C1923.53 361.609 1925.12 356.904 1926.75 352.056C1934.58 329.07 1943 306.299 1951.38 283.511C1954.67 274.523 1957.96 265.535 1961.24 256.547C1964.53 247.538 1967.83 238.53 1971.12 229.521C1974.55 220.129 1977.99 210.737 1981.42 201.345C1989.68 178.742 1997.95 156.141 2006.21 133.54Z" fill="white"/>
<path d="M3266.47 192.454C3267.77 192.454 3269.06 192.454 3270.4 192.454C3270.4 292.255 3270.4 392.056 3270.4 494.882C3287.24 494.882 3304.08 494.882 3321.44 494.882C3321.44 395.08 3321.44 295.279 3321.44 192.454C3322.73 192.454 3324.03 192.454 3325.36 192.454C3330.5 249.479 3329.89 306.662 3329.8 363.861C3329.78 378.071 3329.79 392.282 3329.82 406.492C3329.83 417.486 3329.82 428.48 3329.81 439.474C3329.81 447.265 3329.82 455.057 3329.83 462.849C3329.82 467.521 3329.81 472.193 3329.8 477.007C3329.79 481.134 3329.79 485.262 3329.79 489.515C3329.29 498.809 3329.29 498.809 3325.36 502.737C3305.93 502.737 3286.5 502.737 3266.47 502.737C3266.47 400.343 3266.47 297.95 3266.47 192.454Z" fill="white"/>
<path d="M1071.81 153.178C1071.81 164.961 1071.81 164.961 1063.96 173.552C1061.37 175.902 1058.78 178.251 1056.11 180.671C1053.52 179.375 1050.92 178.079 1048.26 176.744C1062.98 157.596 1062.98 157.596 1071.81 153.178Z" fill="white"/>
</svg>
